<svg xmlns="http://www.w3.org/2000/svg" viewBox="0 0 225.09 274.13"><defs><style>.cls-1{fill:#444545;}.cls-1,.cls-2,.cls-4,.cls-5{fill-rule:evenodd;}.cls-2{fill:#616161;}.cls-3{fill:#fff;}.cls-4{fill:#f18e21;}</style></defs><title>Asset 1</title><g id="Layer_2" data-name="Layer 2"><g id="Layer_1-2" data-name="Layer 1"><path class="cls-1" d="M80.12,200.23A54.1,54.1,0,0,1,58.6,161.75l-37.09-12c2.84,23,34.87,47.56,55.35,56.52l-.15-.15a3.41,3.41,0,1,0,3.4-5.91Z"/><path class="cls-1" d="M147.94,205.78l-.07.13.07-.13Zm37.21-50.29h0l-18.67,6.27a54.11,54.11,0,0,1-22.43,39.14h.05a3.43,3.43,0,1,0,2.92,6,64.67,64.67,0,0,0,18.69-11.84l.24-.22h0c9.31-4.84,20.68-12.62,27.41-22.56a26.47,26.47,0,0,0,2.3,1.76c5.55,3.77,11.42,4.8,13.12,2.3s-1.42-7.59-7-11.36a26,26,0,0,0-3.25-1.89,76.38,76.38,0,0,0,4.82-13.5l-16.92,5.45v0l-1.29.43Z"/><path class="cls-2" d="M76.13,116.75,37.37,69.9C28.32,59.35,10.84,59.75,5.44,78A120.52,120.52,0,0,0,0,112.29a112.78,112.78,0,0,0,3.42,27.65l55,18.45q0-.77,0-1.54A54,54,0,0,1,76.13,116.75Z"/><path class="cls-2" d="M205.58,48.95l-56.51,67.91a54,54,0,0,1,17.63,40q0,.77,0,1.54l40.06-13.44c16.93-5.68,17.92-22.87,17.92-22.87q.42-4.84.42-9.78A112,112,0,0,0,205.58,48.95Z"/><path class="cls-2" d="M145.16,113.61l32.74-47.34c13.45-17.75,16-34.12-7.11-50.39C154.2,4.18,141.66,1.44,120.17,0L115.3,102.76A53.89,53.89,0,0,1,145.16,113.61Z"/><path class="cls-2" d="M109.49,102.77l-3.32-63C105.24,16.57,89.76.92,69.05,8.46,52.56,14.46,38.6,25.71,27.3,38.8L37,52.72l10.49,15,32.18,46A53.89,53.89,0,0,1,109.49,102.77Z"/><path class="cls-1" d="M76.13,116.75,58.8,95.81a74.06,74.06,0,0,0-20.58,51.33q0,2.28.14,4.52l20,6.72,0-1.54A54,54,0,0,1,76.13,116.75Z"/><path class="cls-1" d="M63.81,91,79.7,113.78a53.89,53.89,0,0,1,29.79-11L107.92,73A74,74,0,0,0,63.81,91Z"/><path class="cls-1" d="M116.71,72.94l-1.42,29.82a53.89,53.89,0,0,1,29.86,10.85L161,90.76A74,74,0,0,0,116.71,72.94Z"/><path class="cls-1" d="M166.45,96l-17.37,20.88a54,54,0,0,1,17.63,40l0,1.54,20-6.72q.13-2.24.14-4.52A74.06,74.06,0,0,0,166.45,96Z"/><circle class="cls-3" cx="180.4" cy="178.34" r="2.83"/><path class="cls-4" d="M112.79,183.8Zm-10.22-10.22V159.45a16.46,16.46,0,1,1,20.43-.38v14.51a10.22,10.22,0,1,1-20.43,0Zm10,32.52a49.26,49.26,0,1,0-49.26-49.26A49.26,49.26,0,0,0,112.54,206.1Z"/><path class="cls-5" d="M10,274.13a9,9,0,0,1-6.11-2.34A7.58,7.58,0,0,1,2,269.23,7.83,7.83,0,0,1,1.38,266a6.17,6.17,0,0,1,.8-3.12,7.72,7.72,0,0,1,2.24-2.44,11.11,11.11,0,0,1,3.45-1.61,16,16,0,0,1,4.43-.58,24.43,24.43,0,0,1,4.25.38,21,21,0,0,1,3.85,1v-2.57a8.15,8.15,0,0,0-2.11-5.91A7.6,7.6,0,0,0,12.55,249a11.51,11.51,0,0,0-4.05.8,20.76,20.76,0,0,0-4.35,2.31l-1-1.71q5-3.42,9.56-3.42a10,10,0,0,1,7.45,2.74,10.29,10.29,0,0,1,2.72,7.57v12.78q0,1.26,1.11,1.26v2.26l-.53.08-.48,0a2,2,0,0,1-1.61-.68,2.84,2.84,0,0,1-.7-1.63v-2.16a11.77,11.77,0,0,1-4.63,3.62A14.76,14.76,0,0,1,10,274.13Zm.5-2A12.82,12.82,0,0,0,15.85,271a9.15,9.15,0,0,0,3.75-2.92,3.37,3.37,0,0,0,.8-2v-4.63a20.27,20.27,0,0,0-3.77-1.06,23,23,0,0,0-4.08-.35,13.9,13.9,0,0,0-3.57.43,9.49,9.49,0,0,0-2.77,1.18,5.48,5.48,0,0,0-1.79,1.84,4.67,4.67,0,0,0-.63,2.39,6.12,6.12,0,0,0,.5,2.47,5.8,5.8,0,0,0,1.41,2,6.73,6.73,0,0,0,2.14,1.31A7.24,7.24,0,0,0,10.49,272.12Z"/><path class="cls-5" d="M44.49,249.73a10.27,10.27,0,0,0-9.86,7.55v16.35H32.12V247.47h2.41v6.44a12.63,12.63,0,0,1,3.6-4.5,9.22,9.22,0,0,1,4.8-2q.5-.05.91-.05h.65Z"/><path class="cls-5" d="M89.26,273.63H86.74V259q0-5-1.53-7.35a5.22,5.22,0,0,0-4.7-2.36,8,8,0,0,0-3.07.6,9.31,9.31,0,0,0-2.67,1.69,10.84,10.84,0,0,0-2.09,2.57,13.51,13.51,0,0,0-1.38,3.3v16.15H68.78V259q0-5-1.51-7.37a5.17,5.17,0,0,0-4.68-2.34,8.06,8.06,0,0,0-3,.58,9,9,0,0,0-2.64,1.66,11.91,11.91,0,0,0-2.14,2.57,12.42,12.42,0,0,0-1.43,3.3v16.2H50.82V247.47h2.36v6.24a12.74,12.74,0,0,1,4.23-4.93A10.14,10.14,0,0,1,63.2,247a7.49,7.49,0,0,1,5.38,2A8.27,8.27,0,0,1,71,254.11Q74.77,247,81.31,247q4.28,0,6.11,3t1.84,8.53Z"/><path class="cls-5" d="M104.85,274.13a9,9,0,0,1-6.11-2.34,7.58,7.58,0,0,1-1.84-2.57,7.83,7.83,0,0,1-.65-3.19,6.17,6.17,0,0,1,.8-3.12,7.72,7.72,0,0,1,2.24-2.44,11.11,11.11,0,0,1,3.45-1.61,16,16,0,0,1,4.43-.58,24.43,24.43,0,0,1,4.25.38,21,21,0,0,1,3.85,1v-2.57a8.15,8.15,0,0,0-2.11-5.91,7.6,7.6,0,0,0-5.74-2.19,11.51,11.51,0,0,0-4.05.8A20.76,20.76,0,0,0,99,252.15l-1-1.71q5-3.42,9.56-3.42a10,10,0,0,1,7.45,2.74,10.29,10.29,0,0,1,2.72,7.57v12.78q0,1.26,1.11,1.26v2.26l-.53.08-.48,0a2,2,0,0,1-1.61-.68,2.84,2.84,0,0,1-.7-1.63v-2.16a11.77,11.77,0,0,1-4.63,3.62,14.76,14.76,0,0,1-6.09,1.26Zm.5-2a12.82,12.82,0,0,0,5.36-1.11,9.15,9.15,0,0,0,3.75-2.92,3.37,3.37,0,0,0,.81-2v-4.63a20.27,20.27,0,0,0-3.77-1.06,23,23,0,0,0-4.08-.35,13.9,13.9,0,0,0-3.57.43,9.49,9.49,0,0,0-2.77,1.18,5.48,5.48,0,0,0-1.79,1.84,4.67,4.67,0,0,0-.63,2.39,6.12,6.12,0,0,0,.5,2.47,5.8,5.8,0,0,0,1.41,2,6.73,6.73,0,0,0,2.14,1.31A7.24,7.24,0,0,0,105.35,272.12Z"/><path class="cls-5" d="M137.74,274.13a11.29,11.29,0,0,1-5-1.13,12.91,12.91,0,0,1-4-3,13.83,13.83,0,0,1-2.62-4.33,14.07,14.07,0,0,1-.93-5.06,14.91,14.91,0,0,1,.91-5.18,13.84,13.84,0,0,1,2.52-4.33,12.34,12.34,0,0,1,3.8-3,10.49,10.49,0,0,1,4.8-1.11,10.12,10.12,0,0,1,3.22.5,12.77,12.77,0,0,1,2.82,1.33,12.55,12.55,0,0,1,2.36,1.94,13.42,13.42,0,0,1,1.81,2.36V236.91h2.52v33.2q0,1.26,1.06,1.26v2.26l-.5.08-.4,0a2.22,2.22,0,0,1-1.71-.78,2.42,2.42,0,0,1-.7-1.64V268.4a12.08,12.08,0,0,1-4.3,4.18,11,11,0,0,1-5.61,1.56Zm.45-2.26a8.76,8.76,0,0,0,2.92-.55,11.34,11.34,0,0,0,5.18-3.77,5.34,5.34,0,0,0,1.11-2.72v-8.6a10.32,10.32,0,0,0-1.58-2.69,11.68,11.68,0,0,0-2.34-2.21,11.91,11.91,0,0,0-2.82-1.48,8.46,8.46,0,0,0-2.92-.55,8.71,8.71,0,0,0-4.13,1,10.27,10.27,0,0,0-3.17,2.57,11.57,11.57,0,0,0-2,3.62,12.77,12.77,0,0,0-.7,4.2,11.41,11.41,0,0,0,.8,4.28,11.59,11.59,0,0,0,2.24,3.57,10.86,10.86,0,0,0,3.32,2.47A9.35,9.35,0,0,0,138.19,271.87Z"/><path class="cls-5" d="M159.47,273.63V247.47H162v26.16Zm0-32.1v-4.63H162v4.63Z"/><path class="cls-5" d="M171.63,236.91h2.57v31.54a3.18,3.18,0,0,0,.83,2.31,3,3,0,0,0,2.29.86,8.57,8.57,0,0,0,1.33-.13,7.16,7.16,0,0,0,1.43-.38l.5,2a10.5,10.5,0,0,1-2.11.58,12.47,12.47,0,0,1-2.16.23,4.59,4.59,0,0,1-3.4-1.28,4.66,4.66,0,0,1-1.28-3.45Z"/><path class="cls-5" d="M186.22,236.91h2.57v31.54a3.18,3.18,0,0,0,.83,2.31,3,3,0,0,0,2.29.86,8.57,8.57,0,0,0,1.33-.13,7.16,7.16,0,0,0,1.43-.38l.5,2a10.5,10.5,0,0,1-2.11.58,12.46,12.46,0,0,1-2.16.23,4.59,4.59,0,0,1-3.4-1.28,4.66,4.66,0,0,1-1.28-3.45Z"/><path class="cls-5" d="M211.56,274.13a12,12,0,0,1-5.11-1.08,12.65,12.65,0,0,1-4-2.94,13.58,13.58,0,0,1-2.67-4.33,14.21,14.21,0,0,1-1-5.18,14.12,14.12,0,0,1,3.67-9.56,12.65,12.65,0,0,1,4.05-2.94,11.9,11.9,0,0,1,5.06-1.08,11.73,11.73,0,0,1,5,1.08,13,13,0,0,1,4.05,2.94,13.72,13.72,0,0,1,2.72,4.33,14.18,14.18,0,0,1-2.69,14.74,12.65,12.65,0,0,1-4,2.94,11.9,11.9,0,0,1-5.06,1.08ZM201.3,260.7a11.73,11.73,0,0,0,.81,4.35,11.38,11.38,0,0,0,2.19,3.55,10.38,10.38,0,0,0,3.25,2.39,9.41,9.41,0,0,0,7.95,0,10.31,10.31,0,0,0,3.27-2.44A12.13,12.13,0,0,0,221,256.2a11.44,11.44,0,0,0-2.21-3.57,11,11,0,0,0-3.24-2.44,8.81,8.81,0,0,0-3.95-.91,9,9,0,0,0-4,.91,10.36,10.36,0,0,0-3.24,2.47,12.27,12.27,0,0,0-2.21,3.65A11.8,11.8,0,0,0,201.3,260.7Z"/></g></g></svg>